<svg xmlns="http://www.w3.org/2000/svg" xmlns:xlink="http://www.w3.org/1999/xlink" width="129.512" height="32" viewBox="0 0 129.512 32">
  <defs>
    <linearGradient id="linear-gradient" x1="0.5" x2="0.5" y2="1" gradientUnits="objectBoundingBox">
      <stop offset="0" stop-color="#2bb2ee"/>
      <stop offset="1" stop-color="#2b4eee"/>
    </linearGradient>
    <filter id="Path_33845" x="15.579" y="16.926" width="13.171" height="12.824" filterUnits="userSpaceOnUse">
      <feOffset dy="1" input="SourceAlpha"/>
      <feGaussianBlur stdDeviation="0.5" result="blur"/>
      <feFlood flood-opacity="0.161"/>
      <feComposite operator="in" in2="blur"/>
      <feComposite in="SourceGraphic"/>
    </filter>
    <filter id="Path_33846" x="14.699" y="4.967" width="13.838" height="13.229" filterUnits="userSpaceOnUse">
      <feOffset dy="1" input="SourceAlpha"/>
      <feGaussianBlur stdDeviation="0.5" result="blur-2"/>
      <feFlood flood-opacity="0.161"/>
      <feComposite operator="in" in2="blur-2"/>
      <feComposite in="SourceGraphic"/>
    </filter>
    <filter id="Path_33847" x="3.25" y="4.25" width="14.852" height="11.854" filterUnits="userSpaceOnUse">
      <feOffset dy="1" input="SourceAlpha"/>
      <feGaussianBlur stdDeviation="0.5" result="blur-3"/>
      <feFlood flood-opacity="0.161"/>
      <feComposite operator="in" in2="blur-3"/>
      <feComposite in="SourceGraphic"/>
    </filter>
    <filter id="Path_33848" x="9.403" y="13.394" width="9.317" height="9.317" filterUnits="userSpaceOnUse">
      <feOffset dy="1" input="SourceAlpha"/>
      <feGaussianBlur stdDeviation="0.5" result="blur-4"/>
      <feFlood flood-opacity="0.161"/>
      <feComposite operator="in" in2="blur-4"/>
      <feComposite in="SourceGraphic"/>
    </filter>
  </defs>
  <g id="Group_47033" data-name="Group 47033" transform="translate(14352 12385)">
    <path id="Path_36600" data-name="Path 36600" d="M1.309,0V-14.219H5.967a6.763,6.763,0,0,1,3.916.981,3.323,3.323,0,0,1,1.406,2.915,3.108,3.108,0,0,1-.508,1.748A3.088,3.088,0,0,1,9.3-7.412a3.064,3.064,0,0,1,2,1.152,3.46,3.46,0,0,1,.674,2.119A3.679,3.679,0,0,1,10.625-1.05,6.091,6.091,0,0,1,6.807,0ZM4.16-6.289v4.1H6.807a2.649,2.649,0,0,0,1.729-.493,1.786,1.786,0,0,0,.6-1.46,2.091,2.091,0,0,0-.586-1.592,2.481,2.481,0,0,0-1.768-.557Zm0-1.973h1.9A2.854,2.854,0,0,0,7.822-8.73,1.613,1.613,0,0,0,8.438-10.1a1.706,1.706,0,0,0-.62-1.455,3.046,3.046,0,0,0-1.851-.469H4.16ZM20.388,0a6,6,0,0,1-.269-.762,5.3,5.3,0,0,1-.161-.82A3.908,3.908,0,0,1,18.8-.3a2.913,2.913,0,0,1-1.719.508,3.568,3.568,0,0,1-2.559-.854,3.061,3.061,0,0,1-.9-2.329,2.786,2.786,0,0,1,1.2-2.407,5.974,5.974,0,0,1,3.491-.854h1.6v-.84a1.644,1.644,0,0,0-.4-1.182,1.572,1.572,0,0,0-1.191-.42,1.549,1.549,0,0,0-1.069.337,1.176,1.176,0,0,0-.376.923H14.129l-.02-.059a2.68,2.68,0,0,1,1.167-2.31,5.069,5.069,0,0,1,3.228-.972,4.73,4.73,0,0,1,3.081.957,3.333,3.333,0,0,1,1.177,2.744V-2.7a8.256,8.256,0,0,0,.112,1.4A7.008,7.008,0,0,0,23.23,0ZM17.781-1.9a2.429,2.429,0,0,0,1.328-.371,2,2,0,0,0,.8-.859V-4.629h-1.6a1.9,1.9,0,0,0-1.372.449,1.476,1.476,0,0,0-.464,1.1,1.1,1.1,0,0,0,.347.854A1.371,1.371,0,0,0,17.781-1.9Zm1.182-13.174h3.174l.02.059L19.451-12.48H17.019Zm8.865,4.512.127,1.514a3.865,3.865,0,0,1,1.3-1.26,3.372,3.372,0,0,1,1.729-.449,3.142,3.142,0,0,1,2.5,1.03,4.884,4.884,0,0,1,.9,3.257V0H31.519V-6.465a2.529,2.529,0,0,0-.4-1.606,1.458,1.458,0,0,0-1.187-.474,2.49,2.49,0,0,0-1.118.239,2.183,2.183,0,0,0-.8.659V0H25.171V-10.566ZM44.913-9.229a3.63,3.63,0,0,1,1.221-1.128,3.218,3.218,0,0,1,1.6-.405,3.235,3.235,0,0,1,2.593,1.1A5.126,5.126,0,0,1,51.27-6.27V0H48.419V-6.289a2.92,2.92,0,0,0-.4-1.743,1.405,1.405,0,0,0-1.187-.513,2.839,2.839,0,0,0-1.138.21,1.963,1.963,0,0,0-.786.6V0H42.061V-15.234h2.852ZM59.969,0A6,6,0,0,1,59.7-.762a5.3,5.3,0,0,1-.161-.82A3.909,3.909,0,0,1,58.377-.3a2.913,2.913,0,0,1-1.719.508A3.568,3.568,0,0,1,54.1-.649a3.061,3.061,0,0,1-.9-2.329,2.786,2.786,0,0,1,1.2-2.407,5.974,5.974,0,0,1,3.491-.854h1.6v-.84a1.644,1.644,0,0,0-.4-1.182,1.572,1.572,0,0,0-1.191-.42,1.549,1.549,0,0,0-1.069.337,1.176,1.176,0,0,0-.376.923H53.709l-.02-.059a2.68,2.68,0,0,1,1.167-2.31,5.069,5.069,0,0,1,3.228-.972,4.73,4.73,0,0,1,3.081.957,3.333,3.333,0,0,1,1.177,2.744V-2.7a8.256,8.256,0,0,0,.112,1.4A7.008,7.008,0,0,0,62.811,0ZM57.362-1.9a2.429,2.429,0,0,0,1.328-.371,2,2,0,0,0,.8-.859V-4.629h-1.6a1.9,1.9,0,0,0-1.372.449,1.476,1.476,0,0,0-.464,1.1,1.1,1.1,0,0,0,.347.854A1.371,1.371,0,0,0,57.362-1.9ZM59.344-12.48H56.893L54.237-15.02l.02-.059H57.43Zm8.064,1.914.127,1.514a3.865,3.865,0,0,1,1.3-1.26,3.372,3.372,0,0,1,1.729-.449,3.142,3.142,0,0,1,2.5,1.03,4.884,4.884,0,0,1,.9,3.257V0H71.1V-6.465a2.529,2.529,0,0,0-.4-1.606,1.458,1.458,0,0,0-1.187-.474,2.49,2.49,0,0,0-1.118.239,2.183,2.183,0,0,0-.8.659V0H64.752V-10.566ZM75.99-5.2a6.843,6.843,0,0,1,1.084-4.033,3.516,3.516,0,0,1,3.047-1.533,3,3,0,0,1,1.563.4,3.507,3.507,0,0,1,1.152,1.143l.225-1.348h2.451V-.049A3.927,3.927,0,0,1,84.164,3.14,5.69,5.69,0,0,1,80.4,4.268a7.163,7.163,0,0,1-1.7-.22,7.891,7.891,0,0,1-1.66-.6l.479-2.129a6.544,6.544,0,0,0,1.353.474,6.7,6.7,0,0,0,1.509.161,2.552,2.552,0,0,0,1.724-.488A1.933,1.933,0,0,0,82.66-.059v-.957a3.19,3.19,0,0,1-1.1.908A3.253,3.253,0,0,1,80.1.205a3.586,3.586,0,0,1-3.027-1.426A6.069,6.069,0,0,1,75.99-4.99Zm2.852.205a4.341,4.341,0,0,0,.464,2.183,1.621,1.621,0,0,0,1.519.8,2.354,2.354,0,0,0,1.108-.239,1.828,1.828,0,0,0,.728-.7v-4.58a1.949,1.949,0,0,0-.728-.752,2.133,2.133,0,0,0-1.089-.264,1.6,1.6,0,0,0-1.523.928A5.288,5.288,0,0,0,78.842-5.2Z" transform="translate(-14308 -12362)" fill="#1f2229"/>
    <g id="Group_47032" data-name="Group 47032">
      <rect id="Rectangle_9770" data-name="Rectangle 9770" width="32" height="32" rx="8" transform="translate(-14352 -12385)" fill="url(#linear-gradient)"/>
      <g transform="matrix(1, 0, 0, 1, -14352, -12385)" filter="url(#Path_33845)">
        <path id="Path_33845-2" data-name="Path 33845" d="M57.71,65.317c-.125-.2-.266-.387-.4-.576q-1.963-2.784-3.929-5.562c-.035-.048-.032-.067.019-.1a4.457,4.457,0,0,0,1.478-1.453,4.385,4.385,0,0,0,.634-1.69c.016-.109.032-.221.042-.333,0-.054.026-.064.074-.064q1.522,0,3.043-.016,2.39-.014,4.778-.026c.067,0,.08.016.08.083a11.508,11.508,0,0,1-.24,1.984,11.76,11.76,0,0,1-4.512,7.059c-.31.23-.634.438-.96.64l-.086.058A.032.032,0,0,0,57.71,65.317Z" transform="translate(-36.28 -38.07)" fill="#fff"/>
      </g>
      <g transform="matrix(1, 0, 0, 1, -14352, -12385)" filter="url(#Path_33846)">
        <path id="Path_33846-2" data-name="Path 33846" d="M53.615,28.491c-.032.01-.035-.026-.045-.058a4.521,4.521,0,0,0-.362-.947,4.685,4.685,0,0,0-2.541-2.253c-.058-.019-.07-.042-.048-.1q1.315-3.4,2.627-6.813c.022-.054.042-.064.1-.045a12.2,12.2,0,0,1,8.093,9.168c.022.118.022.118-.1.131q-1.238.149-2.477.294l-1.789.211c-.557.067-1.11.134-1.667.2l-1.558.182Z" transform="translate(-34.41 -12.8)" fill="#fff"/>
      </g>
      <g transform="matrix(1, 0, 0, 1, -14352, -12385)" filter="url(#Path_33847)">
        <path id="Path_33847-2" data-name="Path 33847" d="M23.792,16.035l.368-.01c.349-.006.694,0,1.043.01.493.022.986.064,1.475.134.054.006.061.019.048.07q-.878,3.523-1.757,7.043c-.016.064-.038.086-.106.086a6.743,6.743,0,0,0-1.078.048,5.078,5.078,0,0,0-2.89,1.437c-.029.029-.048.032-.083,0q-2.966-2.41-5.933-4.816c.109-.112.218-.224.33-.333a13.214,13.214,0,0,1,6.931-3.491A13.571,13.571,0,0,1,23.792,16.035Z" transform="translate(-10.13 -11.27)" fill="#fff"/>
      </g>
      <g transform="matrix(1, 0, 0, 1, -14352, -12385)" filter="url(#Path_33848)">
        <path id="Path_33848-2" data-name="Path 33848" d="M40.408,47.678a3.158,3.158,0,1,1-3.158-3.158A3.158,3.158,0,0,1,40.408,47.678Z" transform="translate(-23.19 -30.63)" fill="#fff"/>
      </g>
    </g>
  </g>
</svg>
